<?xml version="1.0" encoding="iso-8859-1"?>
<!-- Generator: Adobe Illustrator 19.0.0, SVG Export Plug-In . SVG Version: 6.00 Build 0)  -->
<svg version="1.1" id="Capa_1" xmlns="http://www.w3.org/2000/svg" xmlns:xlink="http://www.w3.org/1999/xlink" x="0px" y="0px"
	 viewBox="0 0 487.622 487.622" style="enable-background:new 0 0 487.622 487.622;" xml:space="preserve">
<g>
	<g>
		<circle style="fill:#3C556B;" cx="243.811" cy="243.811" r="243.811"/>
		<g>
			<path style="opacity:0.37;fill:#2D465C;enable-background:new    ;" d="M474.422,323.036L275.497,129.749H148.622v239.759
				l119.871,116.951C364.538,476.782,444.123,411.358,474.422,323.036z"/>
			<g>
				<circle style="fill:#FFFFFF;" cx="372.85" cy="244.345" r="14.044"/>
				<path style="fill:#FFFFFF;" d="M319.465,283.686c-7.758,0-14.047,6.289-14.047,14.045c0,7.758,6.289,14.043,14.047,14.043
					c7.752,0,14.043-6.285,14.043-14.043C333.508,289.975,327.217,283.686,319.465,283.686z"/>
				<circle style="fill:#FFFFFF;" cx="263.758" cy="297.73" r="14.044"/>
				<circle style="fill:#FFFFFF;" cx="208.056" cy="297.73" r="14.044"/>
				<path style="fill:#FFFFFF;" d="M152.353,283.686c-7.76,0-14.045,6.289-14.045,14.045c0,7.758,6.285,14.043,14.045,14.043
					c7.754,0,14.043-6.285,14.043-14.043C166.395,289.975,160.106,283.686,152.353,283.686z"/>
				<circle style="fill:#FFFFFF;" cx="263.758" cy="355.006" r="14.043"/>
				<circle style="fill:#FFFFFF;" cx="208.056" cy="355.006" r="14.043"/>
				<path style="fill:#FFFFFF;" d="M152.353,340.963c-7.76,0-14.045,6.287-14.045,14.043s6.285,14.043,14.045,14.043
					c7.754,0,14.043-6.287,14.043-14.043S160.106,340.963,152.353,340.963z"/>
				<circle style="fill:#FFFFFF;" cx="318.715" cy="190.211" r="14.045"/>
				<circle style="fill:#FFFFFF;" cx="263.758" cy="190.211" r="14.045"/>
				<path style="fill:#FFFFFF;" d="M208.806,204.257c7.754,0,14.043-6.289,14.043-14.046c0-7.756-6.289-14.045-14.043-14.045
					c-7.76,0-14.049,6.289-14.049,14.045C194.757,197.968,201.046,204.257,208.806,204.257z"/>
				<circle style="fill:#FFFFFF;" cx="153.849" cy="190.211" r="14.045"/>
				<circle style="fill:#FFFFFF;" cx="263.758" cy="137.45" r="14.046"/>
				<path style="fill:#FFFFFF;" d="M208.806,151.496c7.754,0,14.043-6.29,14.043-14.046c0-7.759-6.289-14.046-14.043-14.046
					c-7.76,0-14.049,6.287-14.049,14.046C194.757,145.206,201.046,151.496,208.806,151.496z"/>
				<circle style="fill:#FFFFFF;" cx="153.849" cy="137.45" r="14.046"/>
				<circle style="fill:#FFFFFF;" cx="318.303" cy="244.345" r="14.044"/>
				<circle style="fill:#FFFFFF;" cx="263.758" cy="244.345" r="14.044"/>
				<path style="fill:#FFFFFF;" d="M209.216,230.301c-7.758,0-14.049,6.287-14.049,14.043c0,7.758,6.291,14.045,14.049,14.045
					c7.754,0,14.043-6.287,14.043-14.045C223.259,236.588,216.97,230.301,209.216,230.301z"/>
				<path style="fill:#FFFFFF;" d="M154.671,230.301c-7.76,0-14.047,6.287-14.047,14.043c0,7.758,6.287,14.045,14.047,14.045
					c7.754,0,14.043-6.287,14.043-14.045C168.714,236.588,162.425,230.301,154.671,230.301z"/>
			</g>
		</g>
	</g>
</g>
<g>
</g>
<g>
</g>
<g>
</g>
<g>
</g>
<g>
</g>
<g>
</g>
<g>
</g>
<g>
</g>
<g>
</g>
<g>
</g>
<g>
</g>
<g>
</g>
<g>
</g>
<g>
</g>
<g>
</g>
</svg>
